<?xml version="1.0" standalone="no"?>
<!DOCTYPE svg PUBLIC "-//W3C//DTD SVG 20010904//EN"
 "http://www.w3.org/TR/2001/REC-SVG-20010904/DTD/svg10.dtd">
<svg version="1.0" xmlns="http://www.w3.org/2000/svg"
 width="32.000000pt" height="32.000000pt" viewBox="0 0 32.000000 32.000000"
 preserveAspectRatio="xMidYMid meet">

<g transform="translate(0.000000,32.000000) scale(0.100000,-0.100000)"
fill="#000000" stroke="none">
<path d="M22 261 c-21 -16 -23 -23 -20 -116 l3 -100 149 -3 c113 -2 151 1 158
10 4 7 8 54 8 105 0 78 -3 94 -17 101 -10 5 -72 12 -139 15 -103 4 -123 2
-142 -12z m83 -26 c0 -12 -40 -19 -61 -11 -9 3 -12 11 -9 16 8 14 70 9 70 -5z
m195 0 c0 -8 -4 -15 -9 -15 -13 0 -22 16 -14 24 11 11 23 6 23 -9z m-68 -6
c55 -29 53 -125 -3 -154 -42 -22 -67 -18 -100 14 -73 74 11 189 103 140z"/>
<path d="M142 204 c-47 -33 -16 -124 43 -124 30 0 75 41 75 68 0 11 -9 31 -21
46 -24 30 -63 34 -97 10z"/>
</g>
</svg>
