<svg xmlns="http://www.w3.org/2000/svg" fill="none" viewBox="0.24 0.02 44.39 19.91">
<path fill-rule="evenodd" clip-rule="evenodd" d="M0.237488 16.2467V0.0153809H38.3727L44.6319 16.2467H39.542L38.3727 13.4755H32.939L31.8385 16.2467H26.9206L31.4946 3.8117H24.8228V16.2467H20.0424V3.8117H14.987C14.987 7.44337 12.5567 8.7869 11.3416 9.00471C12.7722 9.30735 15.285 13.9588 16.3626 16.2467H10.8257C10.4208 15.5209 9.85295 14.4911 9.30214 13.4922C8.54298 12.1154 7.81618 10.7974 7.59297 10.4147C7.06244 9.50526 6.25173 9.50526 5.42321 9.50526V16.2467H0.237488ZM5.51281 6.55296V3.10133C8.64514 3.10133 10.0956 3.29868 10.0956 4.92866C10.0956 6.55299 8.65519 6.55298 5.54536 6.55296H5.51281ZM33.909 9.9466H37.5346L35.6493 4.55162L33.909 9.9466Z" fill="black"/>
<path d="M2.3568 19.8725H1.6999L1.1916 18.9961H0.831908V19.8725H0.237488V17.3395H1.22875C1.4404 17.3395 1.62109 17.3721 1.77082 17.4374C1.92055 17.5027 2.03482 17.5973 2.11363 17.7211C2.19356 17.845 2.23353 17.9941 2.23353 18.1686C2.23353 18.3386 2.19469 18.4844 2.11701 18.606C2.04045 18.7276 1.93069 18.821 1.78771 18.8863L2.3568 19.8725ZM0.831908 18.5317H1.18316C1.32726 18.5317 1.43702 18.503 1.51245 18.4456C1.58788 18.3882 1.62559 18.3048 1.62559 18.1956C1.62559 18.0853 1.58788 18.0014 1.51245 17.944C1.43702 17.8866 1.32726 17.8579 1.18316 17.8579H0.831908V18.5317Z" fill="black"/>
<path d="M2.77121 19.8725V17.3395H4.43288V17.8579H3.36563V18.3426H4.36533V18.861H3.36563V19.3541H4.44977V19.8725H2.77121Z" fill="black"/>
<path d="M4.8456 19.5905L5.12592 19.1379C5.20585 19.201 5.28184 19.2528 5.3539 19.2933C5.42595 19.3327 5.49687 19.362 5.56667 19.3811C5.63647 19.4002 5.7074 19.4098 5.77945 19.4098C5.85825 19.4098 5.9258 19.3997 5.98209 19.3794C6.03951 19.358 6.08341 19.3282 6.11381 19.2899C6.14533 19.2516 6.16109 19.2061 6.16109 19.1531C6.16109 19.0912 6.14026 19.0389 6.09861 18.9961C6.05696 18.9522 6.00179 18.9139 5.93312 18.8813C5.86557 18.8475 5.79183 18.8143 5.7119 18.7816C5.63084 18.7479 5.5481 18.7113 5.46366 18.6719C5.38035 18.6325 5.3038 18.5846 5.234 18.5283C5.1642 18.4709 5.10735 18.4017 5.06344 18.3206C5.02066 18.2396 4.99927 18.141 4.99927 18.0251C4.99927 17.872 5.03755 17.7408 5.1141 17.6316C5.19178 17.5213 5.29761 17.4369 5.43158 17.3783C5.56667 17.3187 5.71922 17.2888 5.88921 17.2888C6.01305 17.2888 6.14195 17.3051 6.27592 17.3378C6.41102 17.3704 6.54668 17.4211 6.6829 17.4898L6.45155 17.9677C6.37049 17.9181 6.28268 17.8793 6.18811 17.8512C6.09467 17.8219 6.00742 17.8072 5.92636 17.8072C5.86219 17.8072 5.8059 17.8168 5.75749 17.836C5.71021 17.854 5.67306 17.8799 5.64604 17.9136C5.62015 17.9474 5.6072 17.9868 5.6072 18.0318C5.6072 18.0893 5.62746 18.1394 5.66799 18.1821C5.70965 18.2238 5.76369 18.2615 5.83011 18.2953C5.89653 18.3291 5.96858 18.3634 6.04626 18.3983C6.12844 18.4332 6.21175 18.472 6.29619 18.5148C6.38175 18.5576 6.45999 18.6083 6.53092 18.6668C6.60297 18.7242 6.66038 18.7934 6.70316 18.8745C6.74707 18.9556 6.76902 19.0529 6.76902 19.1666C6.76902 19.3164 6.72849 19.4487 6.64744 19.5635C6.5675 19.6772 6.45492 19.7656 6.3097 19.8286C6.16559 19.8917 5.99785 19.9232 5.80647 19.9232C5.62972 19.9232 5.45972 19.895 5.29648 19.8387C5.13437 19.7813 4.98407 19.6986 4.8456 19.5905Z" fill="black"/>
<path d="M8.35707 19.8725H7.76265V17.8579H7.0382V17.3395H9.08152V17.8579H8.35707V19.8725Z" fill="black"/>
<path d="M11.5865 19.8725H10.9296L10.4213 18.9961H10.0616V19.8725H9.46722V17.3395H10.4585C10.6701 17.3395 10.8508 17.3721 11.0006 17.4374C11.1503 17.5027 11.2646 17.5973 11.3434 17.7211C11.4233 17.845 11.4633 17.9941 11.4633 18.1686C11.4633 18.3386 11.4244 18.4844 11.3467 18.606C11.2702 18.7276 11.1604 18.821 11.0174 18.8863L11.5865 19.8725ZM10.0616 18.5317H10.4129C10.557 18.5317 10.6668 18.503 10.7422 18.4456C10.8176 18.3882 10.8553 18.3048 10.8553 18.1956C10.8553 18.0853 10.8176 18.0014 10.7422 17.944C10.6668 17.8866 10.557 17.8579 10.4129 17.8579H10.0616V18.5317Z" fill="black"/>
<path d="M12.5954 17.3395V19.8725H12.0009V17.3395H12.5954Z" fill="black"/>
<path d="M15.3554 19.5567C15.2372 19.6716 15.097 19.7616 14.9349 19.8269C14.7728 19.8911 14.596 19.9232 14.4046 19.9232C14.2121 19.9232 14.0342 19.8905 13.871 19.8252C13.7078 19.7588 13.5659 19.6665 13.4454 19.5483C13.325 19.429 13.2315 19.2894 13.1651 19.1295C13.0987 18.9696 13.0655 18.7951 13.0655 18.606C13.0655 18.4169 13.0987 18.2424 13.1651 18.0825C13.2315 17.9226 13.325 17.7836 13.4454 17.6654C13.5659 17.5461 13.7078 17.4537 13.871 17.3885C14.0342 17.322 14.2121 17.2888 14.4046 17.2888C14.5949 17.2888 14.7705 17.3215 14.9315 17.3868C15.0925 17.4509 15.2326 17.541 15.352 17.657L14.9366 18.0741C14.8724 17.9908 14.7936 17.9255 14.7001 17.8782C14.6067 17.8309 14.5048 17.8072 14.3945 17.8072C14.292 17.8072 14.1969 17.8275 14.1091 17.868C14.0213 17.9086 13.9447 17.9649 13.8794 18.0369C13.8141 18.109 13.7635 18.1934 13.7275 18.2902C13.6914 18.387 13.6734 18.4917 13.6734 18.6043C13.6734 18.7191 13.6914 18.825 13.7275 18.9218C13.7635 19.0175 13.8141 19.1019 13.8794 19.1751C13.9447 19.2471 14.0213 19.3034 14.1091 19.344C14.1969 19.3845 14.292 19.4048 14.3945 19.4048C14.5048 19.4048 14.6061 19.3811 14.6985 19.3338C14.7919 19.2865 14.8713 19.2212 14.9366 19.1379L15.3554 19.5567Z" fill="black"/>
<path d="M16.989 19.8725H16.3946V17.8579H15.6701V17.3395H17.7135V17.8579H16.989V19.8725Z" fill="black"/>
<path d="M18.0991 19.8725V17.3395H19.7608V17.8579H18.6936V18.3426H19.6933V18.861H18.6936V19.3541H19.7777V19.8725H18.0991Z" fill="black"/>
<path d="M20.3086 19.8725V17.3395H21.1716C21.4767 17.3395 21.7412 17.3918 21.9652 17.4965C22.1893 17.6001 22.3632 17.747 22.4871 17.9373C22.6109 18.1264 22.6728 18.3493 22.6728 18.606C22.6728 18.8616 22.6109 19.0845 22.4871 19.2747C22.3632 19.465 22.1893 19.6125 21.9652 19.7172C21.7412 19.8207 21.4767 19.8725 21.1716 19.8725H20.3086ZM20.9031 19.3541H21.1918C21.3787 19.3541 21.5369 19.3254 21.6663 19.268C21.7958 19.2094 21.8943 19.1244 21.9619 19.013C22.0305 18.9015 22.0649 18.7659 22.0649 18.606C22.0649 18.4461 22.0305 18.3105 21.9619 18.199C21.8943 18.0876 21.7958 18.0031 21.6663 17.9457C21.5369 17.8872 21.3787 17.8579 21.1918 17.8579H20.9031V19.3541Z" fill="black"/>
<path d="M25.2359 19.8725H24.6415V17.8579H23.917V17.3395H25.9604V17.8579H25.2359V19.8725Z" fill="black"/>
<path d="M27.6075 19.9232C27.4139 19.9232 27.2354 19.8905 27.0722 19.8252C26.9101 19.7588 26.7688 19.6665 26.6483 19.5483C26.5279 19.429 26.4344 19.2894 26.368 19.1295C26.3016 18.9696 26.2684 18.7951 26.2684 18.606C26.2684 18.4169 26.3016 18.2424 26.368 18.0825C26.4344 17.9226 26.5279 17.7836 26.6483 17.6654C26.7688 17.5461 26.9101 17.4537 27.0722 17.3885C27.2354 17.322 27.4144 17.2888 27.6092 17.2888C27.8017 17.2888 27.979 17.322 28.1411 17.3885C28.3044 17.4537 28.4457 17.5461 28.565 17.6654C28.6843 17.7836 28.7772 17.9226 28.8436 18.0825C28.9101 18.2424 28.9433 18.4169 28.9433 18.606C28.9433 18.7951 28.9101 18.9696 28.8436 19.1295C28.7772 19.2894 28.6843 19.429 28.565 19.5483C28.4457 19.6665 28.3044 19.7588 28.1411 19.8252C27.979 19.8905 27.8012 19.9232 27.6075 19.9232ZM27.6075 19.4048C27.7111 19.4048 27.8068 19.3845 27.8946 19.344C27.9835 19.3034 28.0606 19.2471 28.1259 19.1751C28.1924 19.1019 28.2436 19.0169 28.2796 18.9201C28.3168 18.8233 28.3353 18.7186 28.3353 18.606C28.3353 18.4934 28.3168 18.3887 28.2796 18.2919C28.2436 18.1951 28.1924 18.1106 28.1259 18.0386C28.0606 17.9654 27.9835 17.9086 27.8946 17.868C27.8068 17.8275 27.7111 17.8072 27.6075 17.8072C27.5039 17.8072 27.4071 17.8275 27.3171 17.868C27.2281 17.9086 27.1504 17.9654 27.084 18.0386C27.0187 18.1106 26.9675 18.1951 26.9303 18.2919C26.8943 18.3887 26.8763 18.4934 26.8763 18.606C26.8763 18.7186 26.8943 18.8233 26.9303 18.9201C26.9675 19.0169 27.0187 19.1019 27.084 19.1751C27.1504 19.2471 27.2281 19.3034 27.3171 19.344C27.4071 19.3845 27.5039 19.4048 27.6075 19.4048Z" fill="black"/>
<path d="M30.814 19.8725H30.1909L31.1906 17.3395H31.8154L32.8134 19.8725H32.1903L32.0045 19.3744H30.9998L30.814 19.8725ZM31.1906 18.8559H31.8154L31.503 18.0251L31.1906 18.8559Z" fill="black"/>
<path d="M33.2042 19.8725V17.3395H34.0671C34.3722 17.3395 34.6368 17.3918 34.8608 17.4965C35.0848 17.6001 35.2588 17.747 35.3826 17.9373C35.5064 18.1264 35.5684 18.3493 35.5684 18.606C35.5684 18.8616 35.5064 19.0845 35.3826 19.2747C35.2588 19.465 35.0848 19.6125 34.8608 19.7172C34.6368 19.8207 34.3722 19.8725 34.0671 19.8725H33.2042ZM33.7986 19.3541H34.0874C34.2743 19.3541 34.4324 19.3254 34.5619 19.268C34.6914 19.2094 34.7899 19.1244 34.8574 19.013C34.9261 18.9015 34.9604 18.7659 34.9604 18.606C34.9604 18.4461 34.9261 18.3105 34.8574 18.199C34.7899 18.0876 34.6914 18.0031 34.5619 17.9457C34.4324 17.8872 34.2743 17.8579 34.0874 17.8579H33.7986V19.3541Z" fill="black"/>
<path d="M38.2794 17.3395V18.731C38.2794 18.9786 38.2344 19.1914 38.1443 19.3693C38.0554 19.5472 37.927 19.684 37.7593 19.7796C37.5927 19.8753 37.3923 19.9232 37.1581 19.9232C36.9262 19.9232 36.7264 19.8753 36.5586 19.7796C36.3909 19.684 36.262 19.5472 36.1719 19.3693C36.083 19.1914 36.0385 18.9786 36.0385 18.731V17.3395H36.6329V18.6533C36.6329 18.8222 36.6521 18.9623 36.6903 19.0738C36.7297 19.1841 36.7883 19.2668 36.866 19.322C36.9436 19.3772 37.041 19.4048 37.1581 19.4048C37.2763 19.4048 37.3742 19.3772 37.4519 19.322C37.5296 19.2668 37.5876 19.1841 37.6259 19.0738C37.6653 18.9623 37.685 18.8222 37.685 18.6533V17.3395H38.2794Z" fill="black"/>
<path d="M40.5176 19.8725H38.8289V17.3395H39.4233V19.3541H40.5176V19.8725Z" fill="black"/>
<path d="M41.6818 19.8725H41.0874V17.8579H40.3629V17.3395H42.4062V17.8579H41.6818V19.8725Z" fill="black"/>
<path d="M42.6737 19.5905L42.954 19.1379C43.034 19.201 43.11 19.2528 43.182 19.2933C43.2541 19.3327 43.325 19.362 43.3948 19.3811C43.4646 19.4002 43.5355 19.4098 43.6076 19.4098C43.6864 19.4098 43.7539 19.3997 43.8102 19.3794C43.8676 19.358 43.9115 19.3282 43.9419 19.2899C43.9734 19.2516 43.9892 19.2061 43.9892 19.1531C43.9892 19.0912 43.9684 19.0389 43.9267 18.9961C43.8851 18.9522 43.8299 18.9139 43.7612 18.8813C43.6937 18.8475 43.6199 18.8143 43.54 18.7816C43.459 18.7479 43.3762 18.7113 43.2918 18.6719C43.2085 18.6325 43.1319 18.5846 43.0621 18.5283C42.9923 18.4709 42.9355 18.4017 42.8916 18.3206C42.8488 18.2396 42.8274 18.141 42.8274 18.0251C42.8274 17.872 42.8657 17.7408 42.9422 17.6316C43.0199 17.5213 43.1257 17.4369 43.2597 17.3783C43.3948 17.3187 43.5473 17.2888 43.7173 17.2888C43.8412 17.2888 43.9701 17.3051 44.104 17.3378C44.2391 17.3704 44.3748 17.4211 44.511 17.4898L44.2797 17.9677C44.1986 17.9181 44.1108 17.8793 44.0162 17.8512C43.9228 17.8219 43.8355 17.8072 43.7545 17.8072C43.6903 17.8072 43.634 17.8168 43.5856 17.836C43.5383 17.854 43.5012 17.8799 43.4742 17.9136C43.4483 17.9474 43.4353 17.9868 43.4353 18.0318C43.4353 18.0893 43.4556 18.1394 43.4961 18.1821C43.5378 18.2238 43.5918 18.2615 43.6582 18.2953C43.7246 18.3291 43.7967 18.3634 43.8744 18.3983C43.9566 18.4332 44.0399 18.472 44.1243 18.5148C44.2099 18.5576 44.2881 18.6083 44.359 18.6668C44.4311 18.7242 44.4885 18.7934 44.5313 18.8745C44.5752 18.9556 44.5971 19.0529 44.5971 19.1666C44.5971 19.3164 44.5566 19.4487 44.4756 19.5635C44.3956 19.6772 44.283 19.7656 44.1378 19.8286C43.9937 19.8917 43.826 19.9232 43.6346 19.9232C43.4578 19.9232 43.2878 19.895 43.1246 19.8387C42.9625 19.7813 42.8122 19.6986 42.6737 19.5905Z" fill="black"/>
</svg>